  0
SECTION
  2
HEADER
  9
$ACADVER
  1
AC1009
  9
$DWGCODEPAGE
  3
ansi_1252
  9
$INSBASE
 10
0.0
 20
0.0
 30
0.0
  9
$EXTMIN
 10
0.0
 20
0.0
 30
0.0
  9
$EXTMAX
 10
841.0
 20
594.0
 30
0.0
  9
$LIMMIN
 10
0.0
 20
0.0
  9
$LIMMAX
 10
841.0
 20
594.0
  9
$ORTHOMODE
 70
     0
  9
$REGENMODE
 70
     1
  9
$FILLMODE
 70
     1
  9
$QTEXTMODE
 70
     0
  9
$MIRRTEXT
 70
     1
  9
$DRAGMODE
 70
     2
  9
$LTSCALE
 40
1.0
  9
$OSMODE
 70
    37
  9
$ATTMODE
 70
     1
  9
$TEXTSIZE
 40
3.5
  9
$TRACEWID
 40
1.0
  9
$TEXTSTYLE
  7
STANDARD
  9
$CLAYER
  8
0
  9
$CELTYPE
  6
BYLAYER
  9
$CECOLOR
 62
   256
  9
$DIMSCALE
 40
1.0
  9
$DIMASZ
 40
3.302
  9
$DIMEXO
 40
1.0
  9
$DIMDLI
 40
3.75
  9
$DIMRND
 40
0.0
  9
$DIMDLE
 40
0.0
  9
$DIMEXE
 40
1.0
  9
$DIMTP
 40
0.0
  9
$DIMTM
 40
0.0
  9
$DIMTXT
 40
3.5
  9
$DIMCEN
 40
2.5
  9
$DIMTSZ
 40
0.0
  9
$DIMTOL
 70
     0
  9
$DIMLIM
 70
     0
  9
$DIMTIH
 70
     1
  9
$DIMTOH
 70
     1
  9
$DIMSE1
 70
     0
  9
$DIMSE2
 70
     0
  9
$DIMTAD
 70
     1
  9
$DIMZIN
 70
     1
  9
$DIMBLK
  1

  9
$DIMASO
 70
     1
  9
$DIMSHO
 70
     1
  9
$DIMPOST
  1

  9
$DIMAPOST
  1

  9
$DIMALT
 70
     0
  9
$DIMALTD
 70
     3
  9
$DIMALTF
 40
0.0393700787
  9
$DIMLFAC
 40
0.5
  9
$DIMTOFL
 70
     1
  9
$DIMTVP
 40
0.0
  9
$DIMTIX
 70
     0
  9
$DIMSOXD
 70
     0
  9
$DIMSAH
 70
     0
  9
$DIMBLK1
  1

  9
$DIMBLK2
  1

  9
$DIMSTYLE
  2
ISO-25
  9
$DIMCLRD
 70
     0
  9
$DIMCLRE
 70
     0
  9
$DIMCLRT
 70
     0
  9
$DIMTFAC
 40
1.0
  9
$DIMGAP
 40
1.524
  9
$LUNITS
 70
     2
  9
$LUPREC
 70
     2
  9
$SKETCHINC
 40
1.0
  9
$FILLETRAD
 40
10.0
  9
$AUNITS
 70
     0
  9
$AUPREC
 70
     2
  9
$MENU
  1
.
  9
$ELEVATION
 40
0.0
  9
$PELEVATION
 40
0.0
  9
$THICKNESS
 40
0.0
  9
$LIMCHECK
 70
     0
  9
$CHAMFERA
 40
0.0
  9
$CHAMFERB
 40
0.0
  9
$SKPOLY
 70
     0
  9
$TDCREATE
 40
2459639.573198877
  9
$TDUPDATE
 40
2459639.573200081
  9
$TDINDWG
 40
0.0000000116
  9
$TDUSRTIMER
 40
0.0000000116
  9
$USRTIMER
 70
     1
  9
$ANGBASE
 50
0.0
  9
$ANGDIR
 70
     0
  9
$PDMODE
 70
     0
  9
$PDSIZE
 40
-1.0
  9
$PLINEWID
 40
0.0
  9
$COORDS
 70
     1
  9
$SPLFRAME
 70
     0
  9
$SPLINETYPE
 70
     6
  9
$SPLINESEGS
 70
     8
  9
$ATTDIA
 70
     0
  9
$ATTREQ
 70
     1
  9
$HANDLING
 70
     1
  9
$HANDSEED
  5
BD
  9
$SURFTAB1
 70
     6
  9
$SURFTAB2
 70
     6
  9
$SURFTYPE
 70
     6
  9
$SURFU
 70
     6
  9
$SURFV
 70
     6
  9
$UCSNAME
  2

  9
$UCSORG
 10
0.0
 20
0.0
 30
0.0
  9
$UCSXDIR
 10
1.0
 20
0.0
 30
0.0
  9
$UCSYDIR
 10
0.0
 20
1.0
 30
0.0
  9
$PUCSNAME
  2

  9
$PUCSORG
 10
0.0
 20
0.0
 30
0.0
  9
$PUCSXDIR
 10
1.0
 20
0.0
 30
0.0
  9
$PUCSYDIR
 10
0.0
 20
1.0
 30
0.0
  9
$USERI1
 70
     0
  9
$USERI2
 70
     0
  9
$USERI3
 70
     0
  9
$USERI4
 70
     0
  9
$USERI5
 70
     0
  9
$USERR1
 40
0.0
  9
$USERR2
 40
0.0
  9
$USERR3
 40
0.0
  9
$USERR4
 40
0.0
  9
$USERR5
 40
0.0
  9
$WORLDVIEW
 70
     1
  9
$SHADEDGE
 70
     3
  9
$SHADEDIF
 70
    70
  9
$TILEMODE
 70
     1
  9
$MAXACTVP
 70
    64
  9
$PLIMCHECK
 70
     0
  9
$PEXTMIN
 10
1.0000000000E+20
 20
1.0000000000E+20
 30
1.0000000000E+20
  9
$PEXTMAX
 10
-1.0000000000E+20
 20
-1.0000000000E+20
 30
-1.0000000000E+20
  9
$PLIMMIN
 10
0.0
 20
0.0
  9
$PLIMMAX
 10
420.0
 20
297.0
  9
$UNITMODE
 70
     0
  9
$VISRETAIN
 70
     1
  9
$PLINEGEN
 70
     0
  9
$PSLTSCALE
 70
     1
  0
ENDSEC
  0
SECTION
  2
TABLES
  0
TABLE
  2
VPORT
 70
     1
  0
VPORT
  2
*ACTIVE
 70
     0
 10
0.0
 20
0.0
 11
1.0
 21
1.0
 12
420.5
 22
297.0
 13
0.0
 23
0.0
 14
10.0
 24
10.0
 15
10.0
 25
10.0
 16
0.0
 26
0.0
 36
1.0
 17
0.0
 27
0.0
 37
0.0
 40
594.0
 41
1.4158249158
 42
50.0
 43
0.0
 44
0.0
 50
0.0
 51
0.0
 71
     0
 72
  2000
 73
     1
 74
     3
 75
     0
 76
     0
 77
     0
 78
     0
  0
ENDTAB
  0
TABLE
  2
LTYPE
 70
     6
  0
LTYPE
  2
CONTINUOUS
 70
     0
  3
Solid line
 72
    65
 73
     0
 40
0.0
  0
LTYPE
  2
HIDDEN
 70
     0
  3
Hidden __ __ __ __ __ __ __ __ __ __ __ __ __ __
 72
    65
 73
     2
 40
1.905
 49
1.27
 49
-0.635
  0
LTYPE
  2
PHANTOM
 70
     0
  3
Phantom ______  __  __  ______  __  __  ______
 72
    65
 73
     6
 40
12.7
 49
6.35
 49
-1.27
 49
1.27
 49
-1.27
 49
1.27
 49
-1.27
  0
LTYPE
  2
CENTER
 70
     0
  3
Center ____ _ ____ _ ____ _ ____ _ ____ _ ____
 72
    65
 73
     4
 40
10.16
 49
6.35
 49
-1.27
 49
1.27
 49
-1.27
  0
LTYPE
  2
CENTERX2
 70
     0
  3
Center (2x) ________  __  ________  __  _____
 72
    65
 73
     4
 40
20.32
 49
12.7
 49
-2.54
 49
2.54
 49
-2.54
  0
LTYPE
  2
DOT2
 70
     0
  3
Dot (.5x) ........................................
 72
    65
 73
     2
 40
0.635
 49
0.0
 49
-0.635
  0
ENDTAB
  0
TABLE
  2
LAYER
 70
     1
  0
LAYER
  2
0
 70
     0
 62
     7
  6
CONTINUOUS
  0
ENDTAB
  0
TABLE
  2
STYLE
 70
     1
  0
STYLE
  2
STANDARD
 70
     0
 40
0.0
 41
1.0
 50
0.0
 71
     0
 42
3.5
  3
txt
  4

  0
ENDTAB
  0
TABLE
  2
VIEW
 70
     0
  0
ENDTAB
  0
TABLE
  2
UCS
 70
     0
  0
ENDTAB
  0
TABLE
  2
APPID
 70
     1
  0
APPID
  2
ACAD
 70
     0
  0
ENDTAB
  0
TABLE
  2
DIMSTYLE
 70
     1
  0
DIMSTYLE
  2
ISO-25
 70
     0
  3

  4

  5

  6

  7

 40
1.0
 41
2.5
 42
0.625
 43
3.75
 44
1.25
 45
0.0
 46
0.0
 47
0.0
 48
0.0
140
2.5
141
2.5
142
0.0
143
0.0393700787
144
1.0
145
0.0
146
1.0
147
0.625
 71
     0
 72
     0
 73
     0
 74
     0
 75
     0
 76
     0
 77
     1
 78
     8
170
     0
171
     3
172
     1
173
     0
174
     0
175
     0
176
     0
177
     0
178
     0
  0
ENDTAB
  0
ENDSEC
  0
SECTION
  2
BLOCKS
  0
BLOCK
  8
0
  2
$MODEL_SPACE
 70
     0
 10
0.0
 20
0.0
 30
0.0
  3
$MODEL_SPACE
  1

  0
ENDBLK
  5
21
  8
0
  0
BLOCK
 67
     1
  8
0
  2
$PAPER_SPACE
 70
     0
 10
0.0
 20
0.0
 30
0.0
  3
$PAPER_SPACE
  1

  0
ENDBLK
  5
1D
 67
     1
  8
0
  0
ENDSEC
  0
SECTION
  2
ENTITIES
  0
CIRCLE
  5
73
  8
0
  6
CONTINUOUS
 62
     7
 10
89.7683291962
 20
488.5303740537
 30
0.0
 40
8.000000000000028
  0
CIRCLE
  5
74
  8
0
  6
CONTINUOUS
 62
     7
 10
301.7683291962
 20
568.5303740537
 30
0.0
 40
8.000000000000057
  0
CIRCLE
  5
75
  8
0
  6
CONTINUOUS
 62
     7
 10
381.7683291962
 20
408.5303740537
 30
0.0
 40
8.0
  0
CIRCLE
  5
76
  8
0
  6
CONTINUOUS
 62
     7
 10
21.7683291962
 20
448.5303740537
 30
0.0
 40
8.000000000000007
  0
LINE
  5
77
  8
0
  6
CONTINUOUS
 62
     7
 10
401.7683291962
 20
588.5303740537
 30
0.0
 11
1.7683291962
 21
588.5303740537
 31
0.0
  0
LINE
  5
78
  8
0
  6
CONTINUOUS
 62
     7
 10
401.7683291962
 20
388.5303740537
 30
0.0
 11
401.7683291962
 21
588.5303740537
 31
0.0
  0
LINE
  5
79
  8
0
  6
CONTINUOUS
 62
     7
 10
1.7683291962
 20
388.5303740537
 30
0.0
 11
401.7683291962
 21
388.5303740537
 31
0.0
  0
LINE
  5
7A
  8
0
  6
CONTINUOUS
 62
     7
 10
1.7683291962
 20
588.5303740537
 30
0.0
 11
1.7683291962
 21
388.5303740537
 31
0.0
  0
CIRCLE
  5
7B
  8
0
  6
CONTINUOUS
 62
     7
 10
494.0268491975
 20
488.845726501
 30
0.0
 40
8.0
  0
CIRCLE
  5
7C
  8
0
  6
CONTINUOUS
 62
     7
 10
706.0268491975
 20
568.845726501
 30
0.0
 40
8.0
  0
CIRCLE
  5
7D
  8
0
  6
CONTINUOUS
 62
     7
 10
786.0268491975
 20
408.845726501
 30
0.0
 40
8.0
  0
CIRCLE
  5
7E
  8
0
  6
CONTINUOUS
 62
     7
 10
426.0268491975
 20
448.845726501
 30
0.0
 40
8.0
  0
LINE
  5
7F
  8
0
  6
CONTINUOUS
 62
     7
 10
806.0268491975
 20
588.845726501
 30
0.0
 11
406.0268491975
 21
588.845726501
 31
0.0
  0
LINE
  5
80
  8
0
  6
CONTINUOUS
 62
     7
 10
806.0268491975
 20
388.845726501
 30
0.0
 11
806.0268491975
 21
588.845726501
 31
0.0
  0
LINE
  5
81
  8
0
  6
CONTINUOUS
 62
     7
 10
406.0268491975
 20
388.845726501
 30
0.0
 11
806.0268491975
 21
388.845726501
 31
0.0
  0
LINE
  5
82
  8
0
  6
CONTINUOUS
 62
     7
 10
406.0268491975
 20
588.845726501
 30
0.0
 11
406.0268491975
 21
388.845726501
 31
0.0
  0
CIRCLE
  5
83
  8
0
  6
CONTINUOUS
 62
     7
 10
27.863921285
 20
368.461429604
 30
0.0
 40
8.000000000000004
  0
LINE
  5
84
  8
0
  6
CONTINUOUS
 62
     7
 10
7.863921285
 20
383.461429604
 30
0.0
 11
367.863921285
 21
383.461429604
 31
0.0
  0
LINE
  5
85
  8
0
  6
CONTINUOUS
 62
     7
 10
367.863921285
 20
368.461429604
 30
0.0
 11
367.863921285
 21
383.461429604
 31
0.0
  0
LINE
  5
86
  8
0
  6
CONTINUOUS
 62
     7
 10
407.863921285
 20
368.461429604
 30
0.0
 11
367.863921285
 21
368.461429604
 31
0.0
  0
LINE
  5
87
  8
0
  6
CONTINUOUS
 62
     7
 10
407.863921285
 20
353.461429604
 30
0.0
 11
407.863921285
 21
368.461429604
 31
0.0
  0
LINE
  5
88
  8
0
  6
CONTINUOUS
 62
     7
 10
7.863921285
 20
353.461429604
 30
0.0
 11
407.863921285
 21
353.461429604
 31
0.0
  0
LINE
  5
89
  8
0
  6
CONTINUOUS
 62
     7
 10
7.863921285
 20
353.461429604
 30
0.0
 11
7.863921285
 21
383.461429604
 31
0.0
  0
CIRCLE
  5
8A
  8
0
  6
CONTINUOUS
 62
     7
 10
66.8423570538
 20
290.7402505963
 30
0.0
 40
8.0
  0
LINE
  5
8B
  8
0
  6
CONTINUOUS
 62
     7
 10
124.5243330434
 20
307.3774613513
 30
0.0
 11
117.5881172792
 21
285.4066562748
 31
0.0
  0
LINE
  5
8C
  8
0
  6
CONTINUOUS
 62
     7
 10
117.5881172792
 20
285.4066562748
 30
0.0
 11
126.5136707759
 21
284.4685428002
 31
0.0
  0
LINE
  5
8D
  8
0
  6
CONTINUOUS
 62
     7
 10
126.5136707759
 20
284.4685428002
 30
0.0
 11
126.3044274596
 21
282.4777256294
 31
0.0
  0
LINE
  5
8E
  8
0
  6
CONTINUOUS
 62
     7
 10
126.3044274596
 20
282.4777256294
 30
0.0
 11
111.0315475525
 21
265.2276095666
 31
0.0
  0
LINE
  5
8F
  8
0
  6
CONTINUOUS
 62
     7
 10
111.0315475525
 20
265.2276095666
 30
0.0
 11
118.8038812809
 21
260.7402505963
 31
0.0
  0
LINE
  5
90
  8
0
  6
CONTINUOUS
 62
     7
 10
118.8038812809
 20
260.7402505963
 30
0.0
 11
117.8029897067
 21
259.0066555369
 31
0.0
  0
LINE
  5
91
  8
0
  6
CONTINUOUS
 62
     7
 10
117.8029897067
 20
259.0066555369
 30
0.0
 11
96.8342653424
 21
249.4599302674
 31
0.0
  0
LINE
  5
92
  8
0
  6
CONTINUOUS
 62
     7
 10
96.8342653424
 20
249.4599302674
 30
0.0
 11
102.1094721913
 21
242.1992309338
 31
0.0
  0
LINE
  5
93
  8
0
  6
CONTINUOUS
 62
     7
 10
102.1094721913
 20
242.1992309338
 30
0.0
 11
100.4899956052
 21
241.0226123209
 31
0.0
  0
LINE
  5
94
  8
0
  6
CONTINUOUS
 62
     7
 10
100.4899956052
 20
241.0226123209
 30
0.0
 11
77.4511097212
 21
240.8299933731
 31
0.0
  0
LINE
  5
95
  8
0
  6
CONTINUOUS
 62
     7
 10
77.4511097212
 20
240.8299933731
 30
0.0
 11
79.3170585029
 21
232.0513945522
 31
0.0
  0
LINE
  5
96
  8
0
  6
CONTINUOUS
 62
     7
 10
79.3170585029
 20
232.0513945522
 30
0.0
 11
77.3590191191
 21
231.6352004332
 31
0.0
  0
LINE
  5
97
  8
0
  6
CONTINUOUS
 62
     7
 10
77.3590191191
 20
231.6352004332
 30
0.0
 11
56.2336043864
 21
240.8299933731
 31
0.0
  0
LINE
  5
98
  8
0
  6
CONTINUOUS
 62
     7
 10
56.2336043864
 20
240.8299933731
 30
0.0
 11
54.3676556047
 21
232.0513945522
 31
0.0
  0
LINE
  5
99
  8
0
  6
CONTINUOUS
 62
     7
 10
54.3676556047
 20
232.0513945522
 30
0.0
 11
52.4096162209
 21
232.4675886713
 31
0.0
  0
LINE
  5
9A
  8
0
  6
CONTINUOUS
 62
     7
 10
52.4096162209
 20
232.4675886713
 30
0.0
 11
36.8504487652
 21
249.4599302674
 31
0.0
  0
LINE
  5
9B
  8
0
  6
CONTINUOUS
 62
     7
 10
36.8504487652
 20
249.4599302674
 30
0.0
 11
31.5752419162
 21
242.1992309338
 31
0.0
  0
LINE
  5
9C
  8
0
  6
CONTINUOUS
 62
     7
 10
31.5752419162
 20
242.1992309338
 30
0.0
 11
29.9557653301
 21
243.3758495467
 31
0.0
  0
LINE
  5
9D
  8
0
  6
CONTINUOUS
 62
     7
 10
29.9557653301
 20
243.3758495467
 30
0.0
 11
22.653166555
 21
265.2276095665
 31
0.0
  0
LINE
  5
9E
  8
0
  6
CONTINUOUS
 62
     7
 10
22.653166555
 20
265.2276095665
 30
0.0
 11
14.8808328267
 21
260.7402505963
 31
0.0
  0
LINE
  5
9F
  8
0
  6
CONTINUOUS
 62
     7
 10
14.8808328267
 20
260.7402505963
 30
0.0
 11
13.8799412525
 21
262.4738456556
 31
0.0
  0
LINE
  5
A0
  8
0
  6
CONTINUOUS
 62
     7
 10
13.8799412525
 20
262.4738456556
 30
0.0
 11
16.0965968283
 21
285.4066562748
 31
0.0
  0
LINE
  5
A1
  8
0
  6
CONTINUOUS
 62
     7
 10
16.0965968283
 20
285.4066562748
 30
0.0
 11
7.1710433317
 21
284.4685428002
 31
0.0
  0
LINE
  5
A2
  8
0
  6
CONTINUOUS
 62
     7
 10
7.1710433317
 20
284.4685428002
 30
0.0
 11
6.9618000154
 21
286.4593599711
 31
0.0
  0
LINE
  5
A3
  8
0
  6
CONTINUOUS
 62
     7
 10
6.9618000154
 20
286.4593599711
 30
0.0
 11
18.3144300554
 21
306.5079298954
 31
0.0
  0
LINE
  5
A4
  8
0
  6
CONTINUOUS
 62
     7
 10
18.3144300554
 20
306.5079298954
 30
0.0
 11
9.7789660761
 21
309.2812702588
 31
0.0
  0
LINE
  5
A5
  8
0
  6
CONTINUOUS
 62
     7
 10
9.7789660761
 20
309.2812702588
 30
0.0
 11
10.397551088
 21
311.1850791662
 31
0.0
  0
LINE
  5
A6
  8
0
  6
CONTINUOUS
 62
     7
 10
10.397551088
 20
311.1850791662
 30
0.0
 11
28.9231827228
 21
324.8828285203
 31
0.0
  0
LINE
  5
A7
  8
0
  6
CONTINUOUS
 62
     7
 10
28.9231827228
 20
324.8828285203
 30
0.0
 11
22.2536675251
 21
330.8880869778
 31
0.0
  0
LINE
  5
A8
  8
0
  6
CONTINUOUS
 62
     7
 10
22.2536675251
 20
330.8880869778
 30
0.0
 11
23.593121897
 21
332.3757017663
 31
0.0
  0
LINE
  5
A9
  8
0
  6
CONTINUOUS
 62
     7
 10
23.593121897
 20
332.3757017663
 30
0.0
 11
46.0885051169
 21
337.3541652466
 31
0.0
  0
LINE
  5
AA
  8
0
  6
CONTINUOUS
 62
     7
 10
46.0885051169
 20
337.3541652466
 30
0.0
 11
42.4381584692
 21
345.5529780548
 31
0.0
  0
LINE
  5
AB
  8
0
  6
CONTINUOUS
 62
     7
 10
42.4381584692
 20
345.5529780548
 30
0.0
 11
44.2668783716
 21
346.3671766128
 31
0.0
  0
LINE
  5
AC
  8
0
  6
CONTINUOUS
 62
     7
 10
44.2668783716
 20
346.3671766128
 30
0.0
 11
66.8423570538
 21
341.7655326557
 31
0.0
  0
LINE
  5
AD
  8
0
  6
CONTINUOUS
 62
     7
 10
66.8423570538
 20
341.7655326557
 30
0.0
 11
66.8423570538
 21
350.7402505963
 31
0.0
  0
LINE
  5
AE
  8
0
  6
CONTINUOUS
 62
     7
 10
66.8423570538
 20
350.7402505963
 30
0.0
 11
68.8441402022
 21
350.7402505963
 31
0.0
  0
LINE
  5
AF
  8
0
  6
CONTINUOUS
 62
     7
 10
68.8441402022
 20
350.7402505963
 30
0.0
 11
87.5962089906
 21
337.3541652466
 31
0.0
  0
LINE
  5
B0
  8
0
  6
CONTINUOUS
 62
     7
 10
87.5962089906
 20
337.3541652466
 30
0.0
 11
91.2465556383
 21
345.5529780548
 31
0.0
  0
LINE
  5
B1
  8
0
  6
CONTINUOUS
 62
     7
 10
91.2465556383
 20
345.5529780548
 30
0.0
 11
93.0752755407
 21
344.7387794969
 31
0.0
  0
LINE
  5
B2
  8
0
  6
CONTINUOUS
 62
     7
 10
93.0752755407
 20
344.7387794969
 30
0.0
 11
104.7615313848
 21
324.8828285203
 31
0.0
  0
LINE
  5
B3
  8
0
  6
CONTINUOUS
 62
     7
 10
104.7615313848
 20
324.8828285203
 30
0.0
 11
111.4310465824
 21
330.8880869778
 31
0.0
  0
LINE
  5
B4
  8
0
  6
CONTINUOUS
 62
     7
 10
111.4310465824
 20
330.8880869778
 30
0.0
 11
112.7705009543
 21
329.4004721894
 31
0.0
  0
LINE
  5
B5
  8
0
  6
CONTINUOUS
 62
     7
 10
112.7705009543
 20
329.4004721894
 30
0.0
 11
115.3702840522
 21
306.5079298954
 31
0.0
  0
LINE
  5
B6
  8
0
  6
CONTINUOUS
 62
     7
 10
115.3702840522
 20
306.5079298954
 30
0.0
 11
123.9057480315
 21
309.2812702588
 31
0.0
  0
LINE
  5
B7
  8
0
  6
CONTINUOUS
 62
     7
 10
123.9057480315
 20
309.2812702588
 30
0.0
 11
124.5243330434
 21
307.3774613513
 31
0.0
  0
CIRCLE
  5
B8
  8
0
  6
CONTINUOUS
 62
     7
 10
146.2125506569
 20
329.8245775594
 30
0.0
 40
8.0
  0
LINE
  5
B9
  8
0
  6
CONTINUOUS
 62
     7
 10
181.2125506569
 20
344.8245775594
 30
0.0
 11
131.2125506569
 21
344.8245775594
 31
0.0
  0
LINE
  5
BA
  8
0
  6
CONTINUOUS
 62
     7
 10
181.2125506569
 20
314.8245775594
 30
0.0
 11
181.2125506569
 21
344.8245775594
 31
0.0
  0
LINE
  5
BB
  8
0
  6
CONTINUOUS
 62
     7
 10
131.2125506569
 20
314.8245775594
 30
0.0
 11
181.2125506569
 21
314.8245775594
 31
0.0
  0
LINE
  5
BC
  8
0
  6
CONTINUOUS
 62
     7
 10
131.2125506569
 20
344.8245775594
 30
0.0
 11
131.2125506569
 21
314.8245775594
 31
0.0
  0
ENDSEC
  0
EOF
