  0
SECTION
  2
HEADER
  9
$ACADVER
  1
AC1009
  9
$DWGCODEPAGE
  3
ansi_1252
  9
$INSBASE
 10
0.0
 20
0.0
 30
0.0
  9
$EXTMIN
 10
-29.9402785192
 20
-29.5525250815
 30
0.0
  9
$EXTMAX
 10
29.8356568611
 20
30.0
 30
0.0
  9
$LIMMIN
 10
0.0
 20
0.0
  9
$LIMMAX
 10
420.0
 20
297.0
  9
$ORTHOMODE
 70
     0
  9
$REGENMODE
 70
     1
  9
$FILLMODE
 70
     1
  9
$QTEXTMODE
 70
     0
  9
$MIRRTEXT
 70
     1
  9
$DRAGMODE
 70
     2
  9
$LTSCALE
 40
1.0
  9
$OSMODE
 70
    37
  9
$ATTMODE
 70
     1
  9
$TEXTSIZE
 40
3.5
  9
$TRACEWID
 40
1.0
  9
$TEXTSTYLE
  7
STANDARD
  9
$CLAYER
  8
0
  9
$CELTYPE
  6
BYLAYER
  9
$CECOLOR
 62
   256
  9
$DIMSCALE
 40
1.0
  9
$DIMASZ
 40
3.302
  9
$DIMEXO
 40
0.0
  9
$DIMDLI
 40
3.75
  9
$DIMRND
 40
0.0
  9
$DIMDLE
 40
0.0
  9
$DIMEXE
 40
1.0
  9
$DIMTP
 40
0.0
  9
$DIMTM
 40
0.0
  9
$DIMTXT
 40
3.5
  9
$DIMCEN
 40
2.5
  9
$DIMTSZ
 40
0.0
  9
$DIMTOL
 70
     0
  9
$DIMLIM
 70
     0
  9
$DIMTIH
 70
     1
  9
$DIMTOH
 70
     1
  9
$DIMSE1
 70
     0
  9
$DIMSE2
 70
     0
  9
$DIMTAD
 70
     1
  9
$DIMZIN
 70
     1
  9
$DIMBLK
  1

  9
$DIMASO
 70
     1
  9
$DIMSHO
 70
     1
  9
$DIMPOST
  1

  9
$DIMAPOST
  1

  9
$DIMALT
 70
     0
  9
$DIMALTD
 70
     3
  9
$DIMALTF
 40
0.0393700787
  9
$DIMLFAC
 40
1.0
  9
$DIMTOFL
 70
     1
  9
$DIMTVP
 40
0.0
  9
$DIMTIX
 70
     0
  9
$DIMSOXD
 70
     0
  9
$DIMSAH
 70
     0
  9
$DIMBLK1
  1

  9
$DIMBLK2
  1

  9
$DIMSTYLE
  2
ISO-25
  9
$DIMCLRD
 70
     0
  9
$DIMCLRE
 70
     0
  9
$DIMCLRT
 70
     0
  9
$DIMTFAC
 40
1.0
  9
$DIMGAP
 40
1.524
  9
$LUNITS
 70
     2
  9
$LUPREC
 70
     2
  9
$SKETCHINC
 40
1.0
  9
$FILLETRAD
 40
10.0
  9
$AUNITS
 70
     0
  9
$AUPREC
 70
     2
  9
$MENU
  1
.
  9
$ELEVATION
 40
0.0
  9
$PELEVATION
 40
0.0
  9
$THICKNESS
 40
0.0
  9
$LIMCHECK
 70
     0
  9
$CHAMFERA
 40
0.0
  9
$CHAMFERB
 40
0.0
  9
$SKPOLY
 70
     0
  9
$TDCREATE
 40
2459660.522926134
  9
$TDUPDATE
 40
2459660.523059861
  9
$TDINDWG
 40
0.0000000116
  9
$TDUSRTIMER
 40
0.0000000116
  9
$USRTIMER
 70
     1
  9
$ANGBASE
 50
0.0
  9
$ANGDIR
 70
     0
  9
$PDMODE
 70
     0
  9
$PDSIZE
 40
-1.0
  9
$PLINEWID
 40
0.0
  9
$COORDS
 70
     1
  9
$SPLFRAME
 70
     0
  9
$SPLINETYPE
 70
     6
  9
$SPLINESEGS
 70
     8
  9
$ATTDIA
 70
     0
  9
$ATTREQ
 70
     1
  9
$HANDLING
 70
     1
  9
$HANDSEED
  5
D8
  9
$SURFTAB1
 70
     6
  9
$SURFTAB2
 70
     6
  9
$SURFTYPE
 70
     6
  9
$SURFU
 70
     6
  9
$SURFV
 70
     6
  9
$UCSNAME
  2

  9
$UCSORG
 10
0.0
 20
0.0
 30
0.0
  9
$UCSXDIR
 10
1.0
 20
0.0
 30
0.0
  9
$UCSYDIR
 10
0.0
 20
1.0
 30
0.0
  9
$PUCSNAME
  2

  9
$PUCSORG
 10
0.0
 20
0.0
 30
0.0
  9
$PUCSXDIR
 10
1.0
 20
0.0
 30
0.0
  9
$PUCSYDIR
 10
0.0
 20
1.0
 30
0.0
  9
$USERI1
 70
     0
  9
$USERI2
 70
     0
  9
$USERI3
 70
     0
  9
$USERI4
 70
     0
  9
$USERI5
 70
     0
  9
$USERR1
 40
0.0
  9
$USERR2
 40
0.0
  9
$USERR3
 40
0.0
  9
$USERR4
 40
0.0
  9
$USERR5
 40
0.0
  9
$WORLDVIEW
 70
     1
  9
$SHADEDGE
 70
     3
  9
$SHADEDIF
 70
    70
  9
$TILEMODE
 70
     1
  9
$MAXACTVP
 70
    64
  9
$PLIMCHECK
 70
     0
  9
$PEXTMIN
 10
1.0000000000E+20
 20
1.0000000000E+20
 30
1.0000000000E+20
  9
$PEXTMAX
 10
-1.0000000000E+20
 20
-1.0000000000E+20
 30
-1.0000000000E+20
  9
$PLIMMIN
 10
0.0
 20
0.0
  9
$PLIMMAX
 10
420.0
 20
297.0
  9
$UNITMODE
 70
     0
  9
$VISRETAIN
 70
     1
  9
$PLINEGEN
 70
     0
  9
$PSLTSCALE
 70
     1
  0
ENDSEC
  0
SECTION
  2
TABLES
  0
TABLE
  2
VPORT
 70
     1
  0
VPORT
  2
*ACTIVE
 70
     0
 10
0.0
 20
0.0
 11
1.0
 21
1.0
 12
-0.0523108291
 22
0.2237374592
 13
0.0
 23
0.0
 14
10.0
 24
10.0
 15
10.0
 25
10.0
 16
0.0
 26
0.0
 36
1.0
 17
0.0
 27
0.0
 37
0.0
 40
60.7435755832
 41
1.0037514832
 42
50.0
 43
0.0
 44
0.0
 50
0.0
 51
0.0
 71
     0
 72
   100
 73
     1
 74
     3
 75
     0
 76
     0
 77
     0
 78
     0
  0
ENDTAB
  0
TABLE
  2
LTYPE
 70
     6
  0
LTYPE
  2
CONTINUOUS
 70
     0
  3
Solid line
 72
    65
 73
     0
 40
0.0
  0
LTYPE
  2
HIDDEN
 70
     0
  3
Hidden __ __ __ __ __ __ __ __ __ __ __ __ __ __
 72
    65
 73
     2
 40
1.905
 49
1.27
 49
-0.635
  0
LTYPE
  2
PHANTOM
 70
     0
  3
Phantom ______  __  __  ______  __  __  ______
 72
    65
 73
     6
 40
12.7
 49
6.35
 49
-1.27
 49
1.27
 49
-1.27
 49
1.27
 49
-1.27
  0
LTYPE
  2
CENTER
 70
     0
  3
Center ____ _ ____ _ ____ _ ____ _ ____ _ ____
 72
    65
 73
     4
 40
10.16
 49
6.35
 49
-1.27
 49
1.27
 49
-1.27
  0
LTYPE
  2
CENTERX2
 70
     0
  3
Center (2x) ________  __  ________  __  _____
 72
    65
 73
     4
 40
20.32
 49
12.7
 49
-2.54
 49
2.54
 49
-2.54
  0
LTYPE
  2
DOT2
 70
     0
  3
Dot (.5x) ........................................
 72
    65
 73
     2
 40
0.635
 49
0.0
 49
-0.635
  0
ENDTAB
  0
TABLE
  2
LAYER
 70
     1
  0
LAYER
  2
0
 70
     0
 62
     7
  6
CONTINUOUS
  0
ENDTAB
  0
TABLE
  2
STYLE
 70
     1
  0
STYLE
  2
STANDARD
 70
     0
 40
0.0
 41
1.0
 50
0.0
 71
     0
 42
3.5
  3
txt
  4

  0
ENDTAB
  0
TABLE
  2
VIEW
 70
     0
  0
ENDTAB
  0
TABLE
  2
UCS
 70
     0
  0
ENDTAB
  0
TABLE
  2
APPID
 70
     1
  0
APPID
  2
ACAD
 70
     0
  0
ENDTAB
  0
TABLE
  2
DIMSTYLE
 70
     1
  0
DIMSTYLE
  2
ISO-25
 70
     0
  3

  4

  5

  6

  7

 40
1.0
 41
2.5
 42
0.625
 43
3.75
 44
1.25
 45
0.0
 46
0.0
 47
0.0
 48
0.0
140
2.5
141
2.5
142
0.0
143
0.0393700787
144
1.0
145
0.0
146
1.0
147
0.625
 71
     0
 72
     0
 73
     0
 74
     0
 75
     0
 76
     0
 77
     1
 78
     8
170
     0
171
     3
172
     1
173
     0
174
     0
175
     0
176
     0
177
     0
178
     0
  0
ENDTAB
  0
ENDSEC
  0
SECTION
  2
BLOCKS
  0
BLOCK
  8
0
  2
$MODEL_SPACE
 70
     0
 10
0.0
 20
0.0
 30
0.0
  3
$MODEL_SPACE
  1

  0
ENDBLK
  5
21
  8
0
  0
BLOCK
 67
     1
  8
0
  2
$PAPER_SPACE
 70
     0
 10
0.0
 20
0.0
 30
0.0
  3
$PAPER_SPACE
  1

  0
ENDBLK
  5
1D
 67
     1
  8
0
  0
ENDSEC
  0
SECTION
  2
ENTITIES
  0
CIRCLE
  5
73
  8
0
  6
CONTINUOUS
 62
     7
 10
0.0
 20
0.0
 30
0.0
 40
4.000000000000001
  0
CIRCLE
  5
74
  8
0
  6
CONTINUOUS
 62
     7
 10
1.5
 20
20.7143623392
 30
0.0
 40
1.000000000000001
  0
CIRCLE
  5
75
  8
0
  6
CONTINUOUS
 62
     7
 10
6.0
 20
-10.3923048454
 30
0.0
 40
2.500000000000003
  0
CIRCLE
  5
76
  8
0
  6
CONTINUOUS
 62
     7
 10
-6.0
 20
-10.3923048454
 30
0.0
 40
2.499999999999997
  0
CIRCLE
  5
77
  8
0
  6
CONTINUOUS
 62
     7
 10
-12.0
 20
0.0
 30
0.0
 40
2.500000000000002
  0
CIRCLE
  5
78
  8
0
  6
CONTINUOUS
 62
     7
 10
12.0
 20
0.0
 30
0.0
 40
2.500000000000002
  0
CIRCLE
  5
79
  8
0
  6
CONTINUOUS
 62
     7
 10
-1.5
 20
20.7143623392
 30
0.0
 40
1.000000000000001
  0
CIRCLE
  5
7A
  8
0
  6
CONTINUOUS
 62
     7
 10
6.0
 20
10.3923048454
 30
0.0
 40
2.5
  0
CIRCLE
  5
7B
  8
0
  6
CONTINUOUS
 62
     7
 10
-6.0
 20
10.3923048454
 30
0.0
 40
2.500000000000001
  0
LINE
  5
A9
  8
0
  6
CONTINUOUS
 62
     7
 10
28.8409879948
 20
8.3186053775
 30
0.0
 11
25.3728801127
 21
-2.6667971607
 31
0.0
  0
LINE
  5
AA
  8
0
  6
CONTINUOUS
 62
     7
 10
25.3728801127
 20
-2.6667971607
 30
0.0
 11
29.8356568611
 21
-3.135853898
 31
0.0
  0
LINE
  5
AB
  8
0
  6
CONTINUOUS
 62
     7
 10
29.8356568611
 20
-3.135853898
 30
0.0
 11
29.7310352029
 21
-4.1312624835
 31
0.0
  0
LINE
  5
AC
  8
0
  6
CONTINUOUS
 62
     7
 10
29.7310352029
 20
-4.1312624835
 30
0.0
 11
22.0945952494
 21
-12.7563205149
 31
0.0
  0
LINE
  5
AD
  8
0
  6
CONTINUOUS
 62
     7
 10
22.0945952494
 20
-12.7563205149
 30
0.0
 11
25.9807621135
 21
-15.0
 31
0.0
  0
LINE
  5
AE
  8
0
  6
CONTINUOUS
 62
     7
 10
25.9807621135
 20
-15.0
 30
0.0
 11
25.4803163264
 21
-15.8667975297
 31
0.0
  0
LINE
  5
AF
  8
0
  6
CONTINUOUS
 62
     7
 10
25.4803163264
 20
-15.8667975297
 30
0.0
 11
14.9959541443
 21
-20.6401601644
 31
0.0
  0
LINE
  5
B0
  8
0
  6
CONTINUOUS
 62
     7
 10
14.9959541443
 20
-20.6401601644
 30
0.0
 11
17.6335575688
 21
-24.2705098312
 31
0.0
  0
LINE
  5
B1
  8
0
  6
CONTINUOUS
 62
     7
 10
17.6335575688
 20
-24.2705098312
 30
0.0
 11
16.8238192757
 21
-24.8588191377
 31
0.0
  0
LINE
  5
B2
  8
0
  6
CONTINUOUS
 62
     7
 10
16.8238192757
 20
-24.8588191377
 30
0.0
 11
5.3043763337
 21
-24.9551286116
 31
0.0
  0
LINE
  5
B3
  8
0
  6
CONTINUOUS
 62
     7
 10
5.3043763337
 20
-24.9551286116
 30
0.0
 11
6.2373507245
 21
-29.344428022
 31
0.0
  0
LINE
  5
B4
  8
0
  6
CONTINUOUS
 62
     7
 10
6.2373507245
 20
-29.344428022
 30
0.0
 11
5.2583310326
 21
-29.5525250815
 31
0.0
  0
LINE
  5
B5
  8
0
  6
CONTINUOUS
 62
     7
 10
5.2583310326
 20
-29.5525250815
 30
0.0
 11
-5.3043763337
 21
-24.9551286116
 31
0.0
  0
LINE
  5
B6
  8
0
  6
CONTINUOUS
 62
     7
 10
-5.3043763337
 20
-24.9551286116
 30
0.0
 11
-6.2373507245
 21
-29.344428022
 31
0.0
  0
LINE
  5
B7
  8
0
  6
CONTINUOUS
 62
     7
 10
-6.2373507245
 20
-29.344428022
 30
0.0
 11
-7.2163704164
 21
-29.1363309625
 31
0.0
  0
LINE
  5
B8
  8
0
  6
CONTINUOUS
 62
     7
 10
-7.2163704164
 20
-29.1363309625
 30
0.0
 11
-14.9959541443
 21
-20.6401601644
 31
0.0
  0
LINE
  5
B9
  8
0
  6
CONTINUOUS
 62
     7
 10
-14.9959541443
 20
-20.6401601644
 30
0.0
 11
-17.6335575688
 21
-24.2705098313
 31
0.0
  0
LINE
  5
BA
  8
0
  6
CONTINUOUS
 62
     7
 10
-17.6335575688
 20
-24.2705098313
 30
0.0
 11
-18.4432958618
 21
-23.6822005248
 31
0.0
  0
LINE
  5
BB
  8
0
  6
CONTINUOUS
 62
     7
 10
-18.4432958618
 20
-23.6822005248
 30
0.0
 11
-22.0945952494
 21
-12.7563205149
 31
0.0
  0
LINE
  5
BC
  8
0
  6
CONTINUOUS
 62
     7
 10
-22.0945952494
 20
-12.7563205149
 30
0.0
 11
-25.9807621135
 21
-15.0
 31
0.0
  0
LINE
  5
BD
  8
0
  6
CONTINUOUS
 62
     7
 10
-25.9807621135
 20
-15.0
 30
0.0
 11
-26.4812079006
 21
-14.1332024703
 31
0.0
  0
LINE
  5
BE
  8
0
  6
CONTINUOUS
 62
     7
 10
-26.4812079006
 20
-14.1332024703
 30
0.0
 11
-25.3728801127
 21
-2.6667971607
 31
0.0
  0
LINE
  5
BF
  8
0
  6
CONTINUOUS
 62
     7
 10
-25.3728801127
 20
-2.6667971607
 30
0.0
 11
-29.835656861
 21
-3.135853898
 31
0.0
  0
LINE
  5
C0
  8
0
  6
CONTINUOUS
 62
     7
 10
-29.835656861
 20
-3.135853898
 30
0.0
 11
-29.9402785192
 21
-2.1404453126
 31
0.0
  0
LINE
  5
C1
  8
0
  6
CONTINUOUS
 62
     7
 10
-29.9402785192
 20
-2.1404453126
 30
0.0
 11
-24.2639634992
 21
7.8838396496
 31
0.0
  0
LINE
  5
C2
  8
0
  6
CONTINUOUS
 62
     7
 10
-24.2639634992
 20
7.8838396496
 30
0.0
 11
-28.5316954889
 21
9.2705098312
 31
0.0
  0
LINE
  5
C3
  8
0
  6
CONTINUOUS
 62
     7
 10
-28.5316954889
 20
9.2705098312
 30
0.0
 11
-28.2224029829
 21
10.222414285
 31
0.0
  0
LINE
  5
C4
  8
0
  6
CONTINUOUS
 62
     7
 10
-28.2224029829
 20
10.222414285
 30
0.0
 11
-18.9595871655
 21
17.071288962
 31
0.0
  0
LINE
  5
C5
  8
0
  6
CONTINUOUS
 62
     7
 10
-18.9595871655
 20
17.071288962
 30
0.0
 11
-22.2943447643
 21
20.0739181908
 31
0.0
  0
LINE
  5
C6
  8
0
  6
CONTINUOUS
 62
     7
 10
-22.2943447643
 20
20.0739181908
 30
0.0
 11
-21.6246175784
 21
20.817725585
 31
0.0
  0
LINE
  5
C7
  8
0
  6
CONTINUOUS
 62
     7
 10
-21.6246175784
 20
20.817725585
 30
0.0
 11
-10.3769259684
 21
23.3069573252
 31
0.0
  0
LINE
  5
C8
  8
0
  6
CONTINUOUS
 62
     7
 10
-10.3769259684
 20
23.3069573252
 30
0.0
 11
-12.2020992923
 21
27.4063637293
 31
0.0
  0
LINE
  5
C9
  8
0
  6
CONTINUOUS
 62
     7
 10
-12.2020992923
 20
27.4063637293
 30
0.0
 11
-11.2877393411
 21
27.8134630082
 31
0.0
  0
LINE
  5
CA
  8
0
  6
CONTINUOUS
 62
     7
 10
-11.2877393411
 20
27.8134630082
 30
0.0
 11
0.0
 21
25.5126410297
 31
0.0
  0
LINE
  5
CB
  8
0
  6
CONTINUOUS
 62
     7
 10
0.0
 20
25.5126410297
 30
0.0
 11
0.0
 21
30.0
 31
0.0
  0
LINE
  5
CC
  8
0
  6
CONTINUOUS
 62
     7
 10
0.0
 20
30.0
 30
0.0
 11
1.0008915742
 21
30.0
 31
0.0
  0
LINE
  5
CD
  8
0
  6
CONTINUOUS
 62
     7
 10
1.0008915742
 20
30.0
 30
0.0
 11
10.3769259684
 21
23.3069573252
 31
0.0
  0
LINE
  5
CE
  8
0
  6
CONTINUOUS
 62
     7
 10
10.3769259684
 20
23.3069573252
 30
0.0
 11
12.2020992923
 21
27.4063637293
 31
0.0
  0
LINE
  5
CF
  8
0
  6
CONTINUOUS
 62
     7
 10
12.2020992923
 20
27.4063637293
 30
0.0
 11
13.1164592435
 21
26.9992644503
 31
0.0
  0
LINE
  5
D0
  8
0
  6
CONTINUOUS
 62
     7
 10
13.1164592435
 20
26.9992644503
 30
0.0
 11
18.9595871655
 21
17.071288962
 31
0.0
  0
LINE
  5
D1
  8
0
  6
CONTINUOUS
 62
     7
 10
18.9595871655
 20
17.071288962
 30
0.0
 11
22.2943447643
 21
20.0739181908
 31
0.0
  0
LINE
  5
D2
  8
0
  6
CONTINUOUS
 62
     7
 10
22.2943447643
 20
20.0739181908
 30
0.0
 11
22.9640719503
 21
19.3301107965
 31
0.0
  0
LINE
  5
D3
  8
0
  6
CONTINUOUS
 62
     7
 10
22.9640719503
 20
19.3301107965
 30
0.0
 11
24.2639634992
 21
7.8838396496
 31
0.0
  0
LINE
  5
D4
  8
0
  6
CONTINUOUS
 62
     7
 10
24.2639634992
 20
7.8838396496
 30
0.0
 11
28.5316954889
 21
9.2705098312
 31
0.0
  0
LINE
  5
D5
  8
0
  6
CONTINUOUS
 62
     7
 10
28.5316954889
 20
9.2705098312
 30
0.0
 11
28.8409879948
 21
8.3186053775
 31
0.0
  0
TEXT
  5
D6
  8
0
  6
CONTINUOUS
 62
     7
 10
-29.9402785192
 20
-35.095430181
 30
0.0
 40
4.83362
  1
SOLIDWORKS Educational Product.
 41
0.6774193548
 11
-29.9402785192
 21
-36.8029550815
 31
0.0
 73
     1
  0
TEXT
  5
D7
  8
0
  6
CONTINUOUS
 62
     7
 10
-29.9402785192
 20
-42.345860181
 30
0.0
 40
4.83362
  1
For Instructional Use Only.
 41
0.6611111111
 11
-29.9402785192
 21
-44.0533850815
 31
0.0
 73
     1
  0
ENDSEC
  0
EOF
