  0
SECTION
  2
HEADER
  9
$ACADVER
  1
AC1009
  9
$DWGCODEPAGE
  3
ansi_1252
  9
$INSBASE
 10
0.0
 20
0.0
 30
0.0
  9
$EXTMIN
 10
0.0
 20
0.0
 30
0.0
  9
$EXTMAX
 10
841.0
 20
594.0
 30
0.0
  9
$LIMMIN
 10
0.0
 20
0.0
  9
$LIMMAX
 10
841.0
 20
594.0
  9
$ORTHOMODE
 70
     0
  9
$REGENMODE
 70
     1
  9
$FILLMODE
 70
     1
  9
$QTEXTMODE
 70
     0
  9
$MIRRTEXT
 70
     1
  9
$DRAGMODE
 70
     2
  9
$LTSCALE
 40
1.0
  9
$OSMODE
 70
    37
  9
$ATTMODE
 70
     1
  9
$TEXTSIZE
 40
3.5
  9
$TRACEWID
 40
1.0
  9
$TEXTSTYLE
  7
STANDARD
  9
$CLAYER
  8
0
  9
$CELTYPE
  6
BYLAYER
  9
$CECOLOR
 62
   256
  9
$DIMSCALE
 40
1.0
  9
$DIMASZ
 40
3.302
  9
$DIMEXO
 40
1.0
  9
$DIMDLI
 40
3.75
  9
$DIMRND
 40
0.0
  9
$DIMDLE
 40
0.0
  9
$DIMEXE
 40
1.0
  9
$DIMTP
 40
0.0
  9
$DIMTM
 40
0.0
  9
$DIMTXT
 40
3.5
  9
$DIMCEN
 40
2.5
  9
$DIMTSZ
 40
0.0
  9
$DIMTOL
 70
     0
  9
$DIMLIM
 70
     0
  9
$DIMTIH
 70
     1
  9
$DIMTOH
 70
     1
  9
$DIMSE1
 70
     0
  9
$DIMSE2
 70
     0
  9
$DIMTAD
 70
     1
  9
$DIMZIN
 70
     1
  9
$DIMBLK
  1

  9
$DIMASO
 70
     1
  9
$DIMSHO
 70
     1
  9
$DIMPOST
  1

  9
$DIMAPOST
  1

  9
$DIMALT
 70
     0
  9
$DIMALTD
 70
     3
  9
$DIMALTF
 40
0.0393700787
  9
$DIMLFAC
 40
1.0
  9
$DIMTOFL
 70
     1
  9
$DIMTVP
 40
0.0
  9
$DIMTIX
 70
     0
  9
$DIMSOXD
 70
     0
  9
$DIMSAH
 70
     0
  9
$DIMBLK1
  1

  9
$DIMBLK2
  1

  9
$DIMSTYLE
  2
ISO-25
  9
$DIMCLRD
 70
     0
  9
$DIMCLRE
 70
     0
  9
$DIMCLRT
 70
     0
  9
$DIMTFAC
 40
1.0
  9
$DIMGAP
 40
1.524
  9
$LUNITS
 70
     2
  9
$LUPREC
 70
     2
  9
$SKETCHINC
 40
1.0
  9
$FILLETRAD
 40
10.0
  9
$AUNITS
 70
     0
  9
$AUPREC
 70
     2
  9
$MENU
  1
.
  9
$ELEVATION
 40
0.0
  9
$PELEVATION
 40
0.0
  9
$THICKNESS
 40
0.0
  9
$LIMCHECK
 70
     0
  9
$CHAMFERA
 40
0.0
  9
$CHAMFERB
 40
0.0
  9
$SKPOLY
 70
     0
  9
$TDCREATE
 40
2459653.60426162
  9
$TDUPDATE
 40
2459653.604262627
  9
$TDINDWG
 40
0.0000000116
  9
$TDUSRTIMER
 40
0.0000000116
  9
$USRTIMER
 70
     1
  9
$ANGBASE
 50
0.0
  9
$ANGDIR
 70
     0
  9
$PDMODE
 70
     0
  9
$PDSIZE
 40
-1.0
  9
$PLINEWID
 40
0.0
  9
$COORDS
 70
     1
  9
$SPLFRAME
 70
     0
  9
$SPLINETYPE
 70
     6
  9
$SPLINESEGS
 70
     8
  9
$ATTDIA
 70
     0
  9
$ATTREQ
 70
     1
  9
$HANDLING
 70
     1
  9
$HANDSEED
  5
B8
  9
$SURFTAB1
 70
     6
  9
$SURFTAB2
 70
     6
  9
$SURFTYPE
 70
     6
  9
$SURFU
 70
     6
  9
$SURFV
 70
     6
  9
$UCSNAME
  2

  9
$UCSORG
 10
0.0
 20
0.0
 30
0.0
  9
$UCSXDIR
 10
1.0
 20
0.0
 30
0.0
  9
$UCSYDIR
 10
0.0
 20
1.0
 30
0.0
  9
$PUCSNAME
  2

  9
$PUCSORG
 10
0.0
 20
0.0
 30
0.0
  9
$PUCSXDIR
 10
1.0
 20
0.0
 30
0.0
  9
$PUCSYDIR
 10
0.0
 20
1.0
 30
0.0
  9
$USERI1
 70
     0
  9
$USERI2
 70
     0
  9
$USERI3
 70
     0
  9
$USERI4
 70
     0
  9
$USERI5
 70
     0
  9
$USERR1
 40
0.0
  9
$USERR2
 40
0.0
  9
$USERR3
 40
0.0
  9
$USERR4
 40
0.0
  9
$USERR5
 40
0.0
  9
$WORLDVIEW
 70
     1
  9
$SHADEDGE
 70
     3
  9
$SHADEDIF
 70
    70
  9
$TILEMODE
 70
     1
  9
$MAXACTVP
 70
    64
  9
$PLIMCHECK
 70
     0
  9
$PEXTMIN
 10
1.0000000000E+20
 20
1.0000000000E+20
 30
1.0000000000E+20
  9
$PEXTMAX
 10
-1.0000000000E+20
 20
-1.0000000000E+20
 30
-1.0000000000E+20
  9
$PLIMMIN
 10
0.0
 20
0.0
  9
$PLIMMAX
 10
420.0
 20
297.0
  9
$UNITMODE
 70
     0
  9
$VISRETAIN
 70
     1
  9
$PLINEGEN
 70
     0
  9
$PSLTSCALE
 70
     1
  0
ENDSEC
  0
SECTION
  2
TABLES
  0
TABLE
  2
VPORT
 70
     1
  0
VPORT
  2
*ACTIVE
 70
     0
 10
0.0
 20
0.0
 11
1.0
 21
1.0
 12
420.5
 22
297.0
 13
0.0
 23
0.0
 14
10.0
 24
10.0
 15
10.0
 25
10.0
 16
0.0
 26
0.0
 36
1.0
 17
0.0
 27
0.0
 37
0.0
 40
594.0
 41
1.4158249158
 42
50.0
 43
0.0
 44
0.0
 50
0.0
 51
0.0
 71
     0
 72
  2000
 73
     1
 74
     3
 75
     0
 76
     0
 77
     0
 78
     0
  0
ENDTAB
  0
TABLE
  2
LTYPE
 70
     6
  0
LTYPE
  2
CONTINUOUS
 70
     0
  3
Solid line
 72
    65
 73
     0
 40
0.0
  0
LTYPE
  2
HIDDEN
 70
     0
  3
Hidden __ __ __ __ __ __ __ __ __ __ __ __ __ __
 72
    65
 73
     2
 40
1.905
 49
1.27
 49
-0.635
  0
LTYPE
  2
PHANTOM
 70
     0
  3
Phantom ______  __  __  ______  __  __  ______
 72
    65
 73
     6
 40
12.7
 49
6.35
 49
-1.27
 49
1.27
 49
-1.27
 49
1.27
 49
-1.27
  0
LTYPE
  2
CENTER
 70
     0
  3
Center ____ _ ____ _ ____ _ ____ _ ____ _ ____
 72
    65
 73
     4
 40
10.16
 49
6.35
 49
-1.27
 49
1.27
 49
-1.27
  0
LTYPE
  2
CENTERX2
 70
     0
  3
Center (2x) ________  __  ________  __  _____
 72
    65
 73
     4
 40
20.32
 49
12.7
 49
-2.54
 49
2.54
 49
-2.54
  0
LTYPE
  2
DOT2
 70
     0
  3
Dot (.5x) ........................................
 72
    65
 73
     2
 40
0.635
 49
0.0
 49
-0.635
  0
ENDTAB
  0
TABLE
  2
LAYER
 70
     1
  0
LAYER
  2
0
 70
     0
 62
     7
  6
CONTINUOUS
  0
ENDTAB
  0
TABLE
  2
STYLE
 70
     1
  0
STYLE
  2
STANDARD
 70
     0
 40
0.0
 41
1.0
 50
0.0
 71
     0
 42
3.5
  3
txt
  4

  0
ENDTAB
  0
TABLE
  2
VIEW
 70
     0
  0
ENDTAB
  0
TABLE
  2
UCS
 70
     0
  0
ENDTAB
  0
TABLE
  2
APPID
 70
     1
  0
APPID
  2
ACAD
 70
     0
  0
ENDTAB
  0
TABLE
  2
DIMSTYLE
 70
     1
  0
DIMSTYLE
  2
ISO-25
 70
     0
  3

  4

  5

  6

  7

 40
1.0
 41
2.5
 42
0.625
 43
3.75
 44
1.25
 45
0.0
 46
0.0
 47
0.0
 48
0.0
140
2.5
141
2.5
142
0.0
143
0.0393700787
144
1.0
145
0.0
146
1.0
147
0.625
 71
     0
 72
     0
 73
     0
 74
     0
 75
     0
 76
     0
 77
     1
 78
     8
170
     0
171
     3
172
     1
173
     0
174
     0
175
     0
176
     0
177
     0
178
     0
  0
ENDTAB
  0
ENDSEC
  0
SECTION
  2
BLOCKS
  0
BLOCK
  8
0
  2
$MODEL_SPACE
 70
     0
 10
0.0
 20
0.0
 30
0.0
  3
$MODEL_SPACE
  1

  0
ENDBLK
  5
21
  8
0
  0
BLOCK
 67
     1
  8
0
  2
$PAPER_SPACE
 70
     0
 10
0.0
 20
0.0
 30
0.0
  3
$PAPER_SPACE
  1

  0
ENDBLK
  5
1D
 67
     1
  8
0
  0
ENDSEC
  0
SECTION
  2
ENTITIES
  0
CIRCLE
  5
73
  8
0
  6
CONTINUOUS
 62
     7
 10
195.5205007626
 20
567.4755827402
 30
0.0
 40
4.0
  0
CIRCLE
  5
74
  8
0
  6
CONTINUOUS
 62
     7
 10
230.5205007626
 20
487.4755827402
 30
0.0
 40
11.0
  0
CIRCLE
  5
75
  8
0
  6
CONTINUOUS
 62
     7
 10
50.5205007626
 20
507.4755827402
 30
0.0
 40
11.0
  0
LINE
  5
76
  8
0
  6
CONTINUOUS
 62
     7
 10
254.5205007626
 20
577.4755827402
 30
0.0
 11
26.5205007626
 21
577.4755827402
 31
0.0
  0
LINE
  5
77
  8
0
  6
CONTINUOUS
 62
     7
 10
254.5205007626
 20
467.4755827402
 30
0.0
 11
254.5205007626
 21
577.4755827402
 31
0.0
  0
LINE
  5
78
  8
0
  6
CONTINUOUS
 62
     7
 10
26.5205007626
 20
467.4755827402
 30
0.0
 11
254.5205007626
 21
467.4755827402
 31
0.0
  0
LINE
  5
79
  8
0
  6
CONTINUOUS
 62
     7
 10
26.5205007626
 20
577.4755827402
 30
0.0
 11
26.5205007626
 21
467.4755827402
 31
0.0
  0
CIRCLE
  5
7A
  8
0
  6
CONTINUOUS
 62
     7
 10
195.9701582389
 20
452.4542270466
 30
0.0
 40
4.0
  0
CIRCLE
  5
7B
  8
0
  6
CONTINUOUS
 62
     7
 10
230.9701582389
 20
372.4542270466
 30
0.0
 40
11.0
  0
CIRCLE
  5
7C
  8
0
  6
CONTINUOUS
 62
     7
 10
50.9701582389
 20
392.4542270466
 30
0.0
 40
11.0
  0
LINE
  5
7D
  8
0
  6
CONTINUOUS
 62
     7
 10
254.9701582389
 20
462.4542270466
 30
0.0
 11
26.9701582389
 21
462.4542270466
 31
0.0
  0
LINE
  5
7E
  8
0
  6
CONTINUOUS
 62
     7
 10
254.9701582389
 20
352.4542270466
 30
0.0
 11
254.9701582389
 21
462.4542270466
 31
0.0
  0
LINE
  5
7F
  8
0
  6
CONTINUOUS
 62
     7
 10
26.9701582389
 20
352.4542270466
 30
0.0
 11
254.9701582389
 21
352.4542270466
 31
0.0
  0
LINE
  5
80
  8
0
  6
CONTINUOUS
 62
     7
 10
26.9701582389
 20
462.4542270466
 30
0.0
 11
26.9701582389
 21
352.4542270466
 31
0.0
  0
LINE
  5
81
  8
0
  6
CONTINUOUS
 62
     7
 10
507.290696841
 20
568.8782866482
 30
0.0
 11
279.290696841
 21
568.8782866482
 31
0.0
  0
LINE
  5
82
  8
0
  6
CONTINUOUS
 62
     7
 10
507.290696841
 20
506.8782866482
 30
0.0
 11
507.290696841
 21
568.8782866482
 31
0.0
  0
LINE
  5
83
  8
0
  6
CONTINUOUS
 62
     7
 10
279.290696841
 20
506.8782866482
 30
0.0
 11
507.290696841
 21
506.8782866482
 31
0.0
  0
LINE
  5
84
  8
0
  6
CONTINUOUS
 62
     7
 10
279.290696841
 20
568.8782866482
 30
0.0
 11
279.290696841
 21
506.8782866482
 31
0.0
  0
CIRCLE
  5
85
  8
0
  6
CONTINUOUS
 62
     7
 10
336.1576336984
 20
429.6534690729
 30
0.0
 40
8.0
  0
LINE
  5
86
  8
0
  6
CONTINUOUS
 62
     7
 10
393.839609688
 20
446.290679828
 30
0.0
 11
386.9033939239
 21
424.3198747515
 31
0.0
  0
LINE
  5
87
  8
0
  6
CONTINUOUS
 62
     7
 10
386.9033939239
 20
424.3198747515
 30
0.0
 11
395.8289474205
 21
423.3817612769
 31
0.0
  0
LINE
  5
88
  8
0
  6
CONTINUOUS
 62
     7
 10
395.8289474205
 20
423.3817612769
 30
0.0
 11
395.6197041042
 21
421.390944106
 31
0.0
  0
LINE
  5
89
  8
0
  6
CONTINUOUS
 62
     7
 10
395.6197041042
 20
421.390944106
 30
0.0
 11
380.3468241972
 21
404.1408280432
 31
0.0
  0
LINE
  5
8A
  8
0
  6
CONTINUOUS
 62
     7
 10
380.3468241972
 20
404.1408280432
 30
0.0
 11
388.1191579255
 21
399.6534690729
 31
0.0
  0
LINE
  5
8B
  8
0
  6
CONTINUOUS
 62
     7
 10
388.1191579255
 20
399.6534690729
 30
0.0
 11
387.1182663513
 21
397.9198740136
 31
0.0
  0
LINE
  5
8C
  8
0
  6
CONTINUOUS
 62
     7
 10
387.1182663513
 20
397.9198740136
 30
0.0
 11
366.149541987
 21
388.3731487441
 31
0.0
  0
LINE
  5
8D
  8
0
  6
CONTINUOUS
 62
     7
 10
366.149541987
 20
388.3731487441
 30
0.0
 11
371.424748836
 21
381.1124494104
 31
0.0
  0
LINE
  5
8E
  8
0
  6
CONTINUOUS
 62
     7
 10
371.424748836
 20
381.1124494104
 30
0.0
 11
369.8052722499
 21
379.9358307975
 31
0.0
  0
LINE
  5
8F
  8
0
  6
CONTINUOUS
 62
     7
 10
369.8052722499
 20
379.9358307975
 30
0.0
 11
346.7663863659
 21
379.7432118497
 31
0.0
  0
LINE
  5
90
  8
0
  6
CONTINUOUS
 62
     7
 10
346.7663863659
 20
379.7432118497
 30
0.0
 11
348.6323351475
 21
370.9646130289
 31
0.0
  0
LINE
  5
91
  8
0
  6
CONTINUOUS
 62
     7
 10
348.6323351475
 20
370.9646130289
 30
0.0
 11
346.6742957637
 21
370.5484189099
 31
0.0
  0
LINE
  5
92
  8
0
  6
CONTINUOUS
 62
     7
 10
346.6742957637
 20
370.5484189099
 30
0.0
 11
325.548881031
 21
379.7432118497
 31
0.0
  0
LINE
  5
93
  8
0
  6
CONTINUOUS
 62
     7
 10
325.548881031
 20
379.7432118497
 30
0.0
 11
323.6829322494
 21
370.9646130289
 31
0.0
  0
LINE
  5
94
  8
0
  6
CONTINUOUS
 62
     7
 10
323.6829322494
 20
370.9646130289
 30
0.0
 11
321.7248928656
 21
371.3808071479
 31
0.0
  0
LINE
  5
95
  8
0
  6
CONTINUOUS
 62
     7
 10
321.7248928656
 20
371.3808071479
 30
0.0
 11
306.1657254098
 21
388.3731487441
 31
0.0
  0
LINE
  5
96
  8
0
  6
CONTINUOUS
 62
     7
 10
306.1657254098
 20
388.3731487441
 30
0.0
 11
300.8905185609
 21
381.1124494104
 31
0.0
  0
LINE
  5
97
  8
0
  6
CONTINUOUS
 62
     7
 10
300.8905185609
 20
381.1124494104
 30
0.0
 11
299.2710419748
 21
382.2890680233
 31
0.0
  0
LINE
  5
98
  8
0
  6
CONTINUOUS
 62
     7
 10
299.2710419748
 20
382.2890680233
 30
0.0
 11
291.9684431997
 21
404.1408280432
 31
0.0
  0
LINE
  5
99
  8
0
  6
CONTINUOUS
 62
     7
 10
291.9684431997
 20
404.1408280432
 30
0.0
 11
284.1961094714
 21
399.6534690729
 31
0.0
  0
LINE
  5
9A
  8
0
  6
CONTINUOUS
 62
     7
 10
284.1961094714
 20
399.6534690729
 30
0.0
 11
283.1952178972
 21
401.3870641323
 31
0.0
  0
LINE
  5
9B
  8
0
  6
CONTINUOUS
 62
     7
 10
283.1952178972
 20
401.3870641323
 30
0.0
 11
285.411873473
 21
424.3198747515
 31
0.0
  0
LINE
  5
9C
  8
0
  6
CONTINUOUS
 62
     7
 10
285.411873473
 20
424.3198747515
 30
0.0
 11
276.4863199763
 21
423.3817612769
 31
0.0
  0
LINE
  5
9D
  8
0
  6
CONTINUOUS
 62
     7
 10
276.4863199763
 20
423.3817612769
 30
0.0
 11
276.27707666
 21
425.3725784477
 31
0.0
  0
LINE
  5
9E
  8
0
  6
CONTINUOUS
 62
     7
 10
276.27707666
 20
425.3725784477
 30
0.0
 11
287.6297067
 21
445.4211483721
 31
0.0
  0
LINE
  5
9F
  8
0
  6
CONTINUOUS
 62
     7
 10
287.6297067
 20
445.4211483721
 30
0.0
 11
279.0942427207
 21
448.1944887354
 31
0.0
  0
LINE
  5
A0
  8
0
  6
CONTINUOUS
 62
     7
 10
279.0942427207
 20
448.1944887354
 30
0.0
 11
279.7128277326
 21
450.0982976429
 31
0.0
  0
LINE
  5
A1
  8
0
  6
CONTINUOUS
 62
     7
 10
279.7128277326
 20
450.0982976429
 30
0.0
 11
298.2384593674
 21
463.796046997
 31
0.0
  0
LINE
  5
A2
  8
0
  6
CONTINUOUS
 62
     7
 10
298.2384593674
 20
463.796046997
 30
0.0
 11
291.5689441698
 21
469.8013054545
 31
0.0
  0
LINE
  5
A3
  8
0
  6
CONTINUOUS
 62
     7
 10
291.5689441698
 20
469.8013054545
 30
0.0
 11
292.9083985416
 21
471.2889202429
 31
0.0
  0
LINE
  5
A4
  8
0
  6
CONTINUOUS
 62
     7
 10
292.9083985416
 20
471.2889202429
 30
0.0
 11
315.4037817616
 21
476.2673837233
 31
0.0
  0
LINE
  5
A5
  8
0
  6
CONTINUOUS
 62
     7
 10
315.4037817616
 20
476.2673837233
 30
0.0
 11
311.7534351139
 21
484.4661965315
 31
0.0
  0
LINE
  5
A6
  8
0
  6
CONTINUOUS
 62
     7
 10
311.7534351139
 20
484.4661965315
 30
0.0
 11
313.5821550163
 21
485.2803950894
 31
0.0
  0
LINE
  5
A7
  8
0
  6
CONTINUOUS
 62
     7
 10
313.5821550163
 20
485.2803950894
 30
0.0
 11
336.1576336984
 21
480.6787511324
 31
0.0
  0
LINE
  5
A8
  8
0
  6
CONTINUOUS
 62
     7
 10
336.1576336984
 20
480.6787511324
 30
0.0
 11
336.1576336984
 21
489.6534690729
 31
0.0
  0
LINE
  5
A9
  8
0
  6
CONTINUOUS
 62
     7
 10
336.1576336984
 20
489.6534690729
 30
0.0
 11
338.1594168468
 21
489.6534690729
 31
0.0
  0
LINE
  5
AA
  8
0
  6
CONTINUOUS
 62
     7
 10
338.1594168468
 20
489.6534690729
 30
0.0
 11
356.9114856353
 21
476.2673837233
 31
0.0
  0
LINE
  5
AB
  8
0
  6
CONTINUOUS
 62
     7
 10
356.9114856353
 20
476.2673837233
 30
0.0
 11
360.561832283
 21
484.4661965315
 31
0.0
  0
LINE
  5
AC
  8
0
  6
CONTINUOUS
 62
     7
 10
360.561832283
 20
484.4661965315
 30
0.0
 11
362.3905521854
 21
483.6519979736
 31
0.0
  0
LINE
  5
AD
  8
0
  6
CONTINUOUS
 62
     7
 10
362.3905521854
 20
483.6519979736
 30
0.0
 11
374.0768080294
 21
463.796046997
 31
0.0
  0
LINE
  5
AE
  8
0
  6
CONTINUOUS
 62
     7
 10
374.0768080294
 20
463.796046997
 30
0.0
 11
380.7463232271
 21
469.8013054545
 31
0.0
  0
LINE
  5
AF
  8
0
  6
CONTINUOUS
 62
     7
 10
380.7463232271
 20
469.8013054545
 30
0.0
 11
382.0857775989
 21
468.313690666
 31
0.0
  0
LINE
  5
B0
  8
0
  6
CONTINUOUS
 62
     7
 10
382.0857775989
 20
468.313690666
 30
0.0
 11
384.6855606968
 21
445.4211483721
 31
0.0
  0
LINE
  5
B1
  8
0
  6
CONTINUOUS
 62
     7
 10
384.6855606968
 20
445.4211483721
 30
0.0
 11
393.2210246761
 21
448.1944887354
 31
0.0
  0
LINE
  5
B2
  8
0
  6
CONTINUOUS
 62
     7
 10
393.2210246761
 20
448.1944887354
 30
0.0
 11
393.839609688
 21
446.290679828
 31
0.0
  0
CIRCLE
  5
B3
  8
0
  6
CONTINUOUS
 62
     7
 10
432.2610354288
 20
469.573507487
 30
0.0
 40
15.00000000000006
  0
ARC
  5
B4
  8
0
  6
CONTINUOUS
 62
     7
 10
432.2610354288
 20
469.573507487
 30
0.0
 40
17.50000000000004
 50
295.3769335252
 51
244.6230664748
  0
LINE
  5
B5
  8
0
  6
CONTINUOUS
 62
     7
 10
439.7610354288
 20
443.7621191861
 30
0.0
 11
439.7610354288
 21
453.7621191861
 31
0.0
  0
LINE
  5
B6
  8
0
  6
CONTINUOUS
 62
     7
 10
424.7610354288
 20
443.7621191861
 30
0.0
 11
439.7610354288
 21
443.7621191861
 31
0.0
  0
LINE
  5
B7
  8
0
  6
CONTINUOUS
 62
     7
 10
424.7610354288
 20
453.7621191861
 30
0.0
 11
424.7610354288
 21
443.7621191861
 31
0.0
  0
ENDSEC
  0
EOF
